<svg width="50" height="40" viewBox="0 0 50 40" fill="none" xmlns="http://www.w3.org/2000/svg">
<path d="M45 0.550049H5C2.25 0.550049 0.025 2.72055 0.025 5.37339L0 34.3134C0 36.9663 2.25 39.1368 5 39.1368H45C47.75 39.1368 50 36.9663 50 34.3134V5.37339C50 2.72055 47.75 0.550049 45 0.550049ZM44 10.7996L26.325 21.4592C25.525 21.9416 24.475 21.9416 23.675 21.4592L6 10.7996C5.375 10.4138 5 9.76263 5 9.06324C5 7.44742 6.825 6.48276 8.25 7.32684L25 17.4317L41.75 7.32684C43.175 6.48276 45 7.44742 45 9.06324C45 9.76263 44.625 10.4138 44 10.7996Z" fill="white"/>
</svg>
