<svg width="50" height="49" viewBox="0 0 50 49" fill="none" xmlns="http://www.w3.org/2000/svg">
<path d="M25 0.830566C11.1937 0.830566 0 11.6288 0 24.9473C0 36.2479 8.06667 45.7037 18.9417 48.3204C18.825 47.9948 18.75 47.617 18.75 47.1487V43.0267C17.7354 43.0267 16.0354 43.0267 15.6083 43.0267C13.8979 43.0267 12.3771 42.3173 11.6396 40.9989C10.8208 39.5338 10.6792 37.293 8.65 35.9224C8.04792 35.4662 8.50625 34.9456 9.2 35.016C10.4812 35.3657 11.5437 36.2138 12.5437 37.4719C13.5396 38.732 14.0083 39.0173 15.8687 39.0173C16.7708 39.0173 18.1208 38.9671 19.3917 38.7742C20.075 37.1001 21.2562 35.5586 22.7 34.8311C14.375 34.0051 10.4021 30.0098 10.4021 24.5855C10.4021 22.2502 11.4333 19.9913 13.1854 18.0881C12.6104 16.1989 11.8875 12.3463 13.4063 10.8792C17.1521 10.8792 19.4167 13.2225 19.9604 13.8556C21.8271 13.2386 23.8771 12.8889 26.0312 12.8889C28.1896 12.8889 30.2479 13.2386 32.1187 13.8596C32.6562 13.2306 34.9229 10.8792 38.6771 10.8792C40.2021 12.3483 39.4708 16.217 38.8896 18.1021C40.6312 20.0013 41.6563 22.2542 41.6563 24.5855C41.6563 30.0057 37.6896 33.9991 29.3771 34.8291C31.6646 35.9806 33.3333 39.2163 33.3333 41.6541V47.1487C33.3333 47.3577 33.2854 47.5084 33.2604 47.6873C43.0021 44.3934 50 35.4702 50 24.9473C50 11.6288 38.8062 0.830566 25 0.830566Z" fill="white"/>
</svg>
