<svg width="50" height="49" viewBox="0 0 50 49" fill="none" xmlns="http://www.w3.org/2000/svg">
<path d="M44.0476 0.0703125H5.95238C2.66667 0.0703125 0 2.64276 0 5.81238V42.5616C0 45.7313 2.66667 48.3037 5.95238 48.3037H44.0476C47.3333 48.3037 50 45.7313 50 42.5616V5.81238C50 2.64276 47.3333 0.0703125 44.0476 0.0703125ZM15.4762 18.4449V40.2648H8.33333V18.4449H15.4762ZM8.33333 12.0942C8.33333 10.4864 9.7619 9.25762 11.9048 9.25762C14.0476 9.25762 15.3929 10.4864 15.4762 12.0942C15.4762 13.702 14.1429 14.9997 11.9048 14.9997C9.7619 14.9997 8.33333 13.702 8.33333 12.0942ZM41.6667 40.2648H34.5238C34.5238 40.2648 34.5238 29.6305 34.5238 28.7807C34.5238 26.4838 33.3333 24.187 30.3571 24.1411H30.2619C27.381 24.1411 26.1905 26.5068 26.1905 28.7807C26.1905 29.8257 26.1905 40.2648 26.1905 40.2648H19.0476V18.4449H26.1905V21.3849C26.1905 21.3849 28.4881 18.4449 33.1071 18.4449C37.8333 18.4449 41.6667 21.5801 41.6667 27.9308V40.2648Z" fill="white"/>
</svg>
