<svg width="50" height="49" viewBox="0 0 50 49" fill="none" xmlns="http://www.w3.org/2000/svg">
<path d="M45.101 33.2022L38.0312 32.4235C36.3333 32.2356 34.6633 32.7994 33.4665 33.954L28.345 38.8945C20.4681 35.028 14.0106 28.8255 10.0026 21.2L15.1518 16.2327C16.3487 15.0781 16.9332 13.4671 16.7383 11.8292L15.9312 5.06284C15.5972 2.35094 13.2313 0.310303 10.3922 0.310303H5.57699C2.43177 0.310303 -0.184612 2.83425 0.0102247 5.86836C1.48542 28.7987 20.4959 47.1107 44.2381 48.5338C47.3834 48.7218 49.9997 46.1978 49.9997 43.1637V38.5186C50.0276 35.8067 47.9122 33.5244 45.101 33.2022Z" fill="white"/>
</svg>
